<?xml version="1.0" encoding="UTF-8" standalone="no"?>
<svg
   viewBox="0 0 3756.09 3756.49"
   version="1.1"
   id="svg3"
   sodipodi:docname="monero.svg"
   inkscape:version="1.4 (e7c3feb100, 2024-10-09)"
   xmlns:inkscape="http://www.inkscape.org/namespaces/inkscape"
   xmlns:sodipodi="http://sodipodi.sourceforge.net/DTD/sodipodi-0.dtd"
   xmlns="http://www.w3.org/2000/svg"
   xmlns:svg="http://www.w3.org/2000/svg">
  <defs
     id="defs3" />
  <sodipodi:namedview
     id="namedview3"
     pagecolor="#000000"
     bordercolor="#000000"
     borderopacity="0.25"
     inkscape:showpageshadow="2"
     inkscape:pageopacity="0.0"
     inkscape:pagecheckerboard="0"
     inkscape:deskcolor="#d1d1d1"
     inkscape:zoom="0.079728683"
     inkscape:cx="2884.7836"
     inkscape:cy="852.89255"
     inkscape:window-width="1803"
     inkscape:window-height="919"
     inkscape:window-x="0"
     inkscape:window-y="0"
     inkscape:window-maximized="0"
     inkscape:current-layer="svg3" />
  <path
     d="M 1878.04,0 C 841.15,0 -1.08,842.06 0.24,1878 0.5,2085.26 33.55,2284.63 95.58,2471.12 H 657.46 V 891.25 L 1878.04,2111.82 3098.56,891.25 v 1579.9 h 562 c 62.12,-186.48 95,-385.85 95.37,-593.12 C 3757.7,841.01 2915.04,0.00502856 1878.04,0.00502856 Z"
     fill="#f26822"
     id="path2"
     sodipodi:nodetypes="cccccccccccc" />
  <path
     d="m1597.34 2392.42-532.67-532.7v994.14h-407.25l-384.29.07c329.63 540.8 925.35 902.56 1604.91 902.56s1275.31-361.84 1605-902.64h-791.75v-994.13l-532.7 532.7-280.61 280.61-280.62-280.61z"
     fill="#4d4d4d"
     id="path3" />
</svg>
