<?xml version="1.0" encoding="UTF-8" standalone="no"?>
<!-- Created with Inkscape (http://www.inkscape.org/) -->

<svg
   width="400mm"
   height="400mm"
   viewBox="0 0 400 400"
   version="1.1"
   id="svg1"
   inkscape:export-filename="solana.svg"
   inkscape:export-xdpi="34.208755"
   inkscape:export-ydpi="34.208755"
   xmlns:inkscape="http://www.inkscape.org/namespaces/inkscape"
   xmlns:sodipodi="http://sodipodi.sourceforge.net/DTD/sodipodi-0.dtd"
   xmlns="http://www.w3.org/2000/svg"
   xmlns:svg="http://www.w3.org/2000/svg">
  <sodipodi:namedview
     id="namedview1"
     pagecolor="#ffffff"
     bordercolor="#000000"
     borderopacity="0.25"
     inkscape:showpageshadow="2"
     inkscape:pageopacity="0.0"
     inkscape:pagecheckerboard="0"
     inkscape:deskcolor="#d1d1d1"
     inkscape:document-units="mm">
    <inkscape:page
       x="0"
       y="0"
       width="400"
       height="400"
       id="page2"
       margin="0"
       bleed="0" />
  </sodipodi:namedview>
  <defs
     id="defs1">
    <linearGradient
       id="SVGID_1_"
       gradientUnits="userSpaceOnUse"
       x1="300.54901"
       y1="184.6306"
       x2="547.98389"
       y2="425.52869"
       gradientTransform="matrix(0.831183,0,0,-0.831183,-152.95339,453.52095)">
	<stop
   offset="0"
   style="stop-color:#CF41E8"
   id="stop1" />

	<stop
   offset="1"
   style="stop-color:#10F2B0"
   id="stop2" />

</linearGradient>
  </defs>
  <g
     inkscape:label="Layer 1"
     inkscape:groupmode="layer"
     id="layer1">
    <circle
       style="fill:#242424;fill-opacity:1;stroke-width:0.274419"
       id="path1"
       cx="200"
       cy="200"
       r="200" />
    <path
       class="st1"
       d="m 283.62122,148.59133 c -0.66492,0.74806 -1.49612,1.32989 -2.41042,1.66236 -0.91429,0.4156 -1.91172,0.58183 -2.90914,0.58183 H 90.038704 c -6.64945,0 -10.057296,-8.31183 -5.402691,-13.29892 l 30.920017,-32.83173 c 0.66494,-0.74806 1.49612,-1.32989 2.49353,-1.74548 0.91431,-0.4156 1.91172,-0.58183 2.90915,-0.58183 h 189.01101 c 6.7326,0 10.05732,8.39494 5.3196,13.38205 z m 0,146.78693 c -1.41299,1.41302 -3.32471,2.24418 -5.31956,2.24418 H 90.038704 c -6.64945,0 -10.057296,-8.14561 -5.402691,-12.96645 l 30.920017,-32.08368 c 0.66494,-0.74804 1.57923,-1.32987 2.49353,-1.66233 0.91431,-0.4156 1.91172,-0.58184 2.90915,-0.58184 h 189.01101 c 6.7326,0 10.05732,8.22869 5.3196,13.04958 z m 0,-116.78121 c -1.41299,-1.41301 -3.32471,-2.24421 -5.31956,-2.24421 H 90.038704 c -6.64945,0 -10.057296,8.1456 -5.402691,12.96646 l 30.920017,32.08367 c 0.66494,0.74804 1.57923,1.32988 2.49353,1.66236 0.91431,0.4156 1.91172,0.58181 2.90915,0.58181 h 189.01101 c 6.7326,0 10.05732,-8.22869 5.3196,-13.04954 z"
       id="path2"
       inkscape:export-filename="path2.svg"
       inkscape:export-xdpi="96"
       inkscape:export-ydpi="96"
       style="color:#000000;font-style:normal;font-variant:normal;font-weight:normal;font-stretch:normal;font-size:medium;line-height:normal;font-family:sans-serif;font-variant-ligatures:normal;font-variant-position:normal;font-variant-caps:normal;font-variant-numeric:normal;font-variant-alternates:normal;font-variant-east-asian:normal;font-feature-settings:normal;font-variation-settings:normal;text-indent:0;text-align:start;text-decoration-line:none;text-decoration-style:solid;text-decoration-color:#000000;letter-spacing:normal;word-spacing:normal;text-transform:none;writing-mode:lr-tb;direction:ltr;text-orientation:mixed;dominant-baseline:auto;baseline-shift:baseline;text-anchor:start;white-space:normal;shape-padding:0;shape-margin:0;inline-size:0;clip-rule:nonzero;display:inline;overflow:visible;visibility:visible;isolation:auto;mix-blend-mode:normal;color-interpolation:sRGB;color-interpolation-filters:linearRGB;solid-color:#000000;solid-opacity:1;vector-effect:none;fill:url(#SVGID_1_);fill-opacity:1;fill-rule:nonzero;stroke:none;stroke-width:0.831182;stroke-linecap:butt;stroke-linejoin:miter;stroke-miterlimit:4;stroke-dasharray:none;stroke-dashoffset:0;stroke-opacity:1;-inkscape-stroke:none;color-rendering:auto;image-rendering:auto;shape-rendering:auto;text-rendering:auto;enable-background:accumulate;stop-color:#000000" />
  </g>
</svg>
