<?xml version="1.0" encoding="UTF-8" standalone="no"?>
<svg
   viewBox="0 0 32 32"
   version="1.1"
   id="svg1"
   sodipodi:docname="trx.svg"
   inkscape:version="1.4 (e7c3feb100, 2024-10-09)"
   inkscape:export-filename="trx.svg"
   inkscape:export-xdpi="72"
   inkscape:export-ydpi="72"
   xmlns:inkscape="http://www.inkscape.org/namespaces/inkscape"
   xmlns:sodipodi="http://sodipodi.sourceforge.net/DTD/sodipodi-0.dtd"
   xmlns="http://www.w3.org/2000/svg"
   xmlns:svg="http://www.w3.org/2000/svg">
  <defs
     id="defs1" />
  <sodipodi:namedview
     id="namedview1"
     pagecolor="#ffffff"
     bordercolor="#000000"
     borderopacity="0.25"
     inkscape:showpageshadow="2"
     inkscape:pageopacity="0.0"
     inkscape:pagecheckerboard="0"
     inkscape:deskcolor="#d1d1d1"
     inkscape:zoom="13.236155"
     inkscape:cx="1.8132154"
     inkscape:cy="15.374555"
     inkscape:window-width="1969"
     inkscape:window-height="988"
     inkscape:window-x="0"
     inkscape:window-y="0"
     inkscape:window-maximized="0"
     inkscape:current-layer="svg1" />
  <path
     d="M16 0c8.837 0 16 7.163 16 16s-7.163 16-16 16S0 24.837 0 16 7.163 0 16 0zM7.5 7.257l7.595 19.112 10.583-12.894-3.746-3.562L7.5 7.257zm16.252 6.977l-7.67 9.344.983-8.133 6.687-1.21zM9.472 9.488l6.633 5.502-1.038 8.58L9.472 9.487zM21.7 11.083l2.208 2.099-6.038 1.093 3.83-3.192zM10.194 8.778l10.402 1.914-4.038 3.364-6.364-5.278z"
     fill="#FFF"
     fill-rule="evenodd"
     id="path1"
     style="fill:#bcc0c6;fill-opacity:1" />
</svg>
