<?xml version="1.0" encoding="UTF-8" standalone="no"?>
<svg
   role="img"
   viewBox="0 0 24 24"
   version="1.1"
   id="svg1"
   sodipodi:docname="wow.svg"
   xmlns:inkscape="http://www.inkscape.org/namespaces/inkscape"
   xmlns:sodipodi="http://sodipodi.sourceforge.net/DTD/sodipodi-0.dtd"
   xmlns="http://www.w3.org/2000/svg"
   xmlns:svg="http://www.w3.org/2000/svg">
  <sodipodi:namedview
     id="namedview1"
     pagecolor="#ffffff"
     bordercolor="#000000"
     borderopacity="0.25"
     inkscape:showpageshadow="2"
     inkscape:pageopacity="0.0"
     inkscape:pagecheckerboard="0"
     inkscape:deskcolor="#d1d1d1">
    <inkscape:page
       x="0"
       y="0"
       width="24"
       height="24"
       id="page2"
       margin="0"
       bleed="0" />
  </sodipodi:namedview>
  <defs
     id="defs1" />
  <title
     id="title1">Wownero</title>
  <path
     d="M 12,24 C 18.635,24 24,18.627 24,11.985 24,10.65 23.772,9.378 23.382,8.175 H 19.805 V 18.271 L 12,10.455 4.195,18.27 V 8.175 H 0.618 C 0.229,9.378 0,10.65 0,11.985 0,18.625 5.365,24 12,24 Z m 1.788,-15.307 3.417,3.421 V 5.763 h 5.037 C 20.13,2.311 16.322,0 12,0 7.678,0 3.838,2.311 1.755,5.764 h 5.04 v 6.351 l 3.386,-3.421 1.788,-1.79 1.814,1.79 h 0.005 z"
     id="path1"
     style="fill:#bcc0c6;fill-opacity:1" />
</svg>
