<?xml version="1.0" encoding="UTF-8" standalone="no"?>
<svg
   version="1.1"
   viewBox="0 0 192 192"
   xml:space="preserve"
   id="svg6"
   sodipodi:docname="accrescent.svg"
   inkscape:version="1.4 (e7c3feb100, 2024-10-09)"
   xmlns:inkscape="http://www.inkscape.org/namespaces/inkscape"
   xmlns:sodipodi="http://sodipodi.sourceforge.net/DTD/sodipodi-0.dtd"
   xmlns="http://www.w3.org/2000/svg"
   xmlns:svg="http://www.w3.org/2000/svg"><sodipodi:namedview
     id="namedview6"
     pagecolor="#ffffff"
     bordercolor="#000000"
     borderopacity="0.25"
     inkscape:showpageshadow="2"
     inkscape:pageopacity="0.0"
     inkscape:pagecheckerboard="0"
     inkscape:deskcolor="#d1d1d1"
     inkscape:zoom="3.1197917"
     inkscape:cx="47.278798"
     inkscape:cy="65.068447"
     inkscape:window-width="1729"
     inkscape:window-height="1215"
     inkscape:window-x="0"
     inkscape:window-y="0"
     inkscape:window-maximized="0"
     inkscape:current-layer="svg6" /><defs
     id="defs2"><radialGradient
       id="a"
       cx="0"
       cy="0"
       r="192"
       gradientUnits="userSpaceOnUse"><stop
         stop-color="#fff"
         offset="0"
         id="stop1" /><stop
         stop-color="#fff"
         stop-opacity="0"
         offset="1"
         id="stop2" /></radialGradient><mask
       maskUnits="userSpaceOnUse"
       id="mask10"><circle
         style="fill:#bcc0c6;stroke-width:1.02745"
         id="circle10"
         cx="96"
         cy="96"
         r="96" /></mask><mask
       maskUnits="userSpaceOnUse"
       id="mask11"><circle
         style="fill:#bcc0c6;stroke-width:1.02745"
         id="circle11"
         cx="96"
         cy="96"
         r="96" /></mask></defs><rect
     width="192"
     height="192"
     fill="#5a008a"
     stroke-width=".94951"
     id="rect2"
     mask="url(#mask11)" /><g
     id="g6"><rect
       x="-192"
       y="-192"
       width="384"
       height="384"
       fill="url(#a)"
       opacity=".3"
       stroke-width="8.9233"
       id="rect3"
       mask="url(#mask10)" /><g
       transform="rotate(-15 65.962 135.14)"
       id="g5"><path
         d="m121.84 34.264a62 62 0 0 1 16.164 41.736 62 62 0 0 1-62 62 62 62 0 0 1-41.748-16.373 72 72 0 0 0 69.748 54.373 72 72 0 0 0 72-72 72 72 0 0 0-54.164-69.736z"
         fill="#f2f2f1"
         stroke-width="5.5342"
         id="path3" /><path
         d="m121.84 34.264a62 62 0 0 1 16.164 41.736 62 62 0 0 1-62 62 62 62 0 0 1-41.748-16.373 72 72 0 0 0 0.04102 0.125 62 62 0 0 0 45.707 20.248 62 62 0 0 0 62-62 62 62 0 0 0-20.143-45.729 72 72 0 0 0-0.0215-0.0078z"
         fill="#fff"
         opacity=".8"
         stroke-width="7.6164"
         id="path4" /><path
         d="m152.86 51.139a72 72 0 0 1 19.139 48.861 72 72 0 0 1-72 72 72 72 0 0 1-47.15-17.586 72 72 0 0 0 51.15 21.586 72 72 0 0 0 72-72 72 72 0 0 0-23.139-52.861z"
         opacity=".3"
         stroke-width="3.0149"
         id="path5" /></g></g></svg>
