<?xml version="1.0" encoding="UTF-8" standalone="no"?>
<!--

Designed by Jaime López, 2024

https://jaim3.com

-->

<svg
   viewBox="0 0 108 108"
   fill="none"
   version="1.1"
   id="svg9"
   sodipodi:docname="cupcake-light.svg"
   inkscape:version="1.4 (e7c3feb100, 2024-10-09)"
   xmlns:inkscape="http://www.inkscape.org/namespaces/inkscape"
   xmlns:sodipodi="http://sodipodi.sourceforge.net/DTD/sodipodi-0.dtd"
   xmlns="http://www.w3.org/2000/svg"
   xmlns:svg="http://www.w3.org/2000/svg">
  <sodipodi:namedview
     id="namedview9"
     pagecolor="#ffffff"
     bordercolor="#000000"
     borderopacity="0.25"
     inkscape:showpageshadow="2"
     inkscape:pageopacity="0.0"
     inkscape:pagecheckerboard="0"
     inkscape:deskcolor="#d1d1d1"
     inkscape:zoom="1.6531895"
     inkscape:cx="40.52772"
     inkscape:cy="42.342394"
     inkscape:window-width="1239"
     inkscape:window-height="761"
     inkscape:window-x="0"
     inkscape:window-y="0"
     inkscape:window-maximized="0"
     inkscape:current-layer="svg9" />
  <g
     clip-path="url(#clip0_21427_156)"
     id="g3"
     transform="matrix(1.3472403,0,0,1.3472403,-18.864883,-16.477508)">
    <path
       fill-rule="evenodd"
       clip-rule="evenodd"
       d="M 73.8435,46.0735 C 71.5354,37.3399 63.5644,30.8987 54.0847,30.8987 c -9.4766,0 -17.4517,6.4412 -19.7573,15.1756 -0.3971,1.4952 -1.2792,2.8172 -2.5085,3.7598 -1.2293,0.9425 -2.7367,1.4525 -4.287,1.4505 -4.6113,0 -7.9718,-4.3555 -6.7956,-8.8038 3.8986,-14.7389 17.3513,-25.6058 33.3484,-25.6058 15.997,0 29.4497,10.8669 33.3499,25.605 1.1779,4.4451 -2.1843,8.8038 -6.7955,8.8038 -1.5504,0.002 -3.0578,-0.508 -4.2871,-1.4505 -1.2293,-0.9426 -2.1113,-2.2646 -2.5085,-3.7598 z m -30.2972,-6.421 c 2.8876,-2.6052 6.6453,-4.042 10.5383,-4.0295 3.8932,-0.0136 7.6514,1.4223 10.5398,4.0269 2.8883,2.6046 4.6989,6.1906 5.0778,10.0566 0.0265,0.2999 -0.028,0.6014 -0.1579,0.8731 -0.1299,0.2717 -0.3304,0.5037 -0.5807,0.6718 l -0.0704,0.0484 c -0.2824,0.1984 -0.6191,0.3052 -0.9644,0.3061 -0.3453,8e-4 -0.6825,-0.1043 -0.9659,-0.3012 -1.9189,-1.3389 -4.2347,-1.9921 -6.5721,-1.8537 -2.3375,0.1385 -4.5596,1.0604 -6.3062,2.6165 -1.7468,-1.5546 -3.9683,-2.4754 -6.3048,-2.6132 -2.3366,-0.1379 -4.6514,0.5153 -6.5696,1.8536 -0.2833,0.1969 -0.6205,0.3021 -0.9659,0.3012 -0.3453,-9e-4 -0.682,-0.1077 -0.9643,-0.306 l -0.0704,-0.0485 c -0.2502,-0.1681 -0.4507,-0.4001 -0.5806,-0.6719 -0.1299,-0.2716 -0.1845,-0.5731 -0.158,-0.873 0.378,-3.8659 2.1878,-7.452 5.0753,-10.0572 z"
       fill="#ffffff"
       id="path1" />
    <path
       fill-rule="evenodd"
       clip-rule="evenodd"
       d="M 73.8435,46.0735 C 71.5354,37.3399 63.5644,30.8987 54.0847,30.8987 c -9.4766,0 -17.4517,6.4412 -19.7573,15.1756 -0.3971,1.4952 -1.2792,2.8172 -2.5085,3.7598 -1.2293,0.9425 -2.7367,1.4525 -4.287,1.4505 -4.6113,0 -7.9718,-4.3555 -6.7956,-8.8038 3.8986,-14.7389 17.3513,-25.6058 33.3484,-25.6058 15.997,0 29.4497,10.8669 33.3499,25.605 1.1779,4.4451 -2.1843,8.8038 -6.7955,8.8038 -1.5504,0.002 -3.0578,-0.508 -4.2871,-1.4505 -1.2293,-0.9426 -2.1113,-2.2646 -2.5085,-3.7598 z m -30.2972,-6.421 c 2.8876,-2.6052 6.6453,-4.042 10.5383,-4.0295 3.8932,-0.0136 7.6514,1.4223 10.5398,4.0269 2.8883,2.6046 4.6989,6.1906 5.0778,10.0566 0.0265,0.2999 -0.028,0.6014 -0.1579,0.8731 -0.1299,0.2717 -0.3304,0.5037 -0.5807,0.6718 l -0.0704,0.0484 c -0.2824,0.1984 -0.6191,0.3052 -0.9644,0.3061 -0.3453,8e-4 -0.6825,-0.1043 -0.9659,-0.3012 -1.9189,-1.3389 -4.2347,-1.9921 -6.5721,-1.8537 -2.3375,0.1385 -4.5596,1.0604 -6.3062,2.6165 -1.7468,-1.5546 -3.9683,-2.4754 -6.3048,-2.6132 -2.3366,-0.1379 -4.6514,0.5153 -6.5696,1.8536 -0.2833,0.1969 -0.6205,0.3021 -0.9659,0.3012 -0.3453,-9e-4 -0.682,-0.1077 -0.9643,-0.306 l -0.0704,-0.0485 c -0.2502,-0.1681 -0.4507,-0.4001 -0.5806,-0.6719 -0.1299,-0.2716 -0.1845,-0.5731 -0.158,-0.873 0.378,-3.8659 2.1878,-7.452 5.0753,-10.0572 z"
       fill="url(#paint0_linear_21427_156)"
       id="path2"
       style="fill:url(#paint0_linear_21427_156)" />
    <path
       d="m 81.5968,59.1021 c -0.0089,-0.1001 -0.0194,-0.1994 -0.0324,-0.2979 0,-0.0137 -0.004,-0.0282 -0.0056,-0.0419 -0.017,-0.1219 -0.0373,-0.2422 -0.0607,-0.3649 -0.0235,-0.1227 -0.0502,-0.2421 -0.0809,-0.3592 -0.0308,-0.117 -0.0623,-0.2365 -0.0979,-0.3535 -0.0178,-0.0581 -0.0372,-0.1162 -0.0566,-0.1744 -0.4668,-1.3928 -1.3716,-2.5982 -2.5799,-3.4369 L 78.5291,53.9709 C 78.36,53.8611 78.1844,53.7578 78.0032,53.6634 77.4481,53.372 76.8543,53.1609 76.2396,53.0362 76.0673,53.0007 75.891,52.9741 75.7138,52.9555 75.4305,52.9191 75.1451,52.9002 74.8595,52.899 h -0.0146 c -0.9792,-0.0012 -1.9475,0.2057 -2.8403,0.607 -0.1618,0.0726 -0.3236,0.1517 -0.4765,0.2365 -0.6717,0.3672 -1.278,0.8426 -1.7944,1.4069 l -0.0218,0.025 c -0.0656,0.0718 -0.1295,0.1453 -0.1918,0.2195 -0.963,1.1554 -1.5204,2.5936 -1.5872,4.0948 0,0.1041 -0.0081,0.2091 -0.0081,0.3148 0,-0.0969 0,-0.1929 -0.0073,-0.289 -0.0715,-1.7806 -0.8312,-3.4645 -2.1199,-4.6984 -1.2886,-1.234 -3.006,-1.9222 -4.7921,-1.9203 -0.1287,0 -0.2565,0.004 -0.3827,0.0113 -1.5843,0.0876 -3.0904,0.7158 -4.266,1.7792 -1.1755,1.0634 -1.9492,2.4976 -2.1914,4.0622 -0.0072,0.0428 -0.0113,0.0872 -0.017,0.13 -0.0097,0.0718 -0.0202,0.1429 -0.0275,0.2155 -0.004,0.0444 -0.0064,0.0904 -0.0105,0.1356 -0.0056,0.071 -0.0121,0.1429 -0.0162,0.2155 v 0.0129 c -0.0056,0.113 -0.0089,0.2277 -0.0089,0.3423 0.0021,-1.3453 -0.3917,-2.6616 -1.1325,-3.7856 L 52.8977,55.9291 C 52.8007,55.787 52.6979,55.649 52.5911,55.515 52.4257,55.306 52.2485,55.1066 52.0604,54.9177 51.5885,54.4471 51.0513,54.0467 50.4651,53.7288 50.2693,53.623 50.0679,53.5253 49.8608,53.4382 49.7572,53.3946 49.6521,53.3575 49.5461,53.3147 48.5087,52.937 47.396,52.8122 46.3005,52.9504 c -1.0955,0.1383 -2.142,0.5358 -3.0524,1.1593 -0.0971,0.0662 -0.1926,0.1356 -0.2856,0.2067 -0.1402,0.1076 -0.2751,0.2195 -0.4045,0.3358 -0.0874,0.0785 -0.1726,0.1592 -0.2556,0.2421 -0.0831,0.0829 -0.164,0.1674 -0.2427,0.2535 -0.0979,0.1073 -0.1926,0.2195 -0.284,0.3333 -0.0914,0.1138 -0.1796,0.2309 -0.2645,0.3503 -0.1068,0.1518 -0.2088,0.3076 -0.3034,0.4682 -0.1235,0.2092 -0.2358,0.4247 -0.3366,0.6457 -0.072,0.1574 -0.1399,0.3172 -0.1998,0.4843 -0.0388,0.1058 -0.0752,0.2123 -0.1092,0.3229 -0.1021,0.3276 -0.1794,0.6625 -0.2314,1.0017 -0.0379,0.2527 -0.062,0.5074 -0.072,0.7628 0,0.096 -0.008,0.1921 -0.008,0.2889 0,-0.1057 0,-0.2107 -0.0073,-0.3148 -0.0255,-0.5902 -0.1275,-1.1746 -0.3034,-1.7386 -0.034,-0.1082 -0.0704,-0.2147 -0.1092,-0.3229 -0.0558,-0.1542 -0.1197,-0.3035 -0.1861,-0.452 -0.0663,-0.1485 -0.1424,-0.3043 -0.2216,-0.4512 -0.0162,-0.0299 -0.034,-0.0597 -0.051,-0.0896 -0.1166,-0.2076 -0.2438,-0.4091 -0.3811,-0.6038 -0.0849,-0.1194 -0.1723,-0.2365 -0.2645,-0.3503 -0.0922,-0.1138 -0.1715,-0.209 -0.2621,-0.3083 l -0.0218,-0.025 c -0.4365,-0.4766 -0.9372,-0.8903 -1.4878,-1.2293 -0.1505,-0.0921 -0.305,-0.1792 -0.4627,-0.26 -0.1578,-0.0807 -0.3196,-0.1565 -0.4854,-0.2252 -1.2865,-0.5362 -2.7049,-0.674 -4.0709,-0.3955 -0.4712,0.0962 -0.9306,0.2426 -1.3704,0.4367 -0.1845,0.0823 -0.3641,0.1719 -0.5388,0.2688 -0.1748,0.0969 -0.3438,0.2013 -0.5072,0.3132 -0.1618,0.1122 -0.3236,0.23 -0.4733,0.3551 -0.0858,0.0703 -0.1691,0.1421 -0.2508,0.2164 -0.0817,0.0742 -0.1618,0.1493 -0.2427,0.2276 -0.0591,0.0589 -0.1173,0.1194 -0.1739,0.1808 -0.8986,0.9677 -1.4993,2.1728 -1.7305,3.4716 -0.0121,0.0702 -0.0234,0.1396 -0.0339,0.2099 -0.013,0.088 -0.0235,0.1751 -0.0332,0.2639 -0.0097,0.0888 -0.0138,0.1792 -0.0202,0.268 -0.0065,0.0888 -0.0097,0.1816 -0.0122,0.2728 -0.0128,0.5539 0.0416,1.1074 0.1618,1.6483 0,0 3.0742,13.947 4.7731,21.6321 0.3086,1.4023 1.0885,2.6573 2.2101,3.5568 1.1217,0.8995 2.5178,1.3895 3.9568,1.3887 h 32.8856 c 1.4379,5e-4 2.8328,-0.4889 3.9539,-1.3872 1.121,-0.8984 1.901,-2.1518 2.2107,-3.5527 C 78,76.9413 79.9812,67.9381 79.9812,67.9381 l 1.4845,-6.7648 c 0.065,-0.2962 0.1104,-0.5963 0.1359,-0.8984 0.0089,-0.0993 0.0146,-0.1994 0.0186,-0.2979 0,-0.0605 0,-0.121 0.0057,-0.1808 0.0021,-0.2317 -0.0076,-0.4634 -0.0291,-0.6941 z"
       fill="url(#paint1_linear_21427_156)"
       id="path3"
       style="fill:url(#paint1_linear_21427_156)" />
  </g>
  <g
     style="mix-blend-mode:screen"
     opacity="0.08"
     filter="url(#filter0_f_21427_156)"
     id="g4"
     transform="matrix(1.3472403,0,0,1.3472403,-19.177043,17.223304)">
    <ellipse
       cx="54.3162"
       cy="27.2978"
       rx="25.4779"
       ry="18.2978"
       fill="url(#paint2_linear_21427_156)"
       id="ellipse3"
       style="fill:url(#paint2_linear_21427_156)" />
  </g>
  <defs
     id="defs9">
    <filter
       id="filter0_f_21427_156"
       x="20.0883"
       y="0.25"
       width="68.4559"
       height="54.0956"
       filterUnits="userSpaceOnUse"
       color-interpolation-filters="sRGB">
      <feFlood
         flood-opacity="0"
         result="BackgroundImageFix"
         id="feFlood4" />
      <feBlend
         mode="normal"
         in="SourceGraphic"
         in2="BackgroundImageFix"
         result="shape"
         id="feBlend4" />
      <feGaussianBlur
         stdDeviation="4.375"
         result="effect1_foregroundBlur_21427_156"
         id="feGaussianBlur4" />
    </filter>
    <linearGradient
       id="paint0_linear_21427_156"
       x1="54.3163"
       y1="16.875"
       x2="54.0866"
       y2="52.0675"
       gradientUnits="userSpaceOnUse">
      <stop
         stop-color="#F9FDFF"
         id="stop4" />
      <stop
         offset="1"
         stop-color="#B6DCFF"
         id="stop5" />
    </linearGradient>
    <linearGradient
       id="paint1_linear_21427_156"
       x1="54.3162"
       y1="59.4927"
       x2="54.3162"
       y2="92.614"
       gradientUnits="userSpaceOnUse">
      <stop
         stop-color="#75BDFF"
         id="stop6" />
      <stop
         offset="0.973742"
         stop-color="#3284FF"
         id="stop7" />
    </linearGradient>
    <linearGradient
       id="paint2_linear_21427_156"
       x1="54.3162"
       y1="9"
       x2="54.3162"
       y2="45.5956"
       gradientUnits="userSpaceOnUse">
      <stop
         stop-color="white"
         id="stop8" />
      <stop
         offset="1"
         stop-color="white"
         stop-opacity="0"
         id="stop9" />
    </linearGradient>
    <clipPath
       id="clip0_21427_156">
      <rect
         width="67.1691"
         height="70.875"
         fill="white"
         transform="translate(20.5 16.875)"
         id="rect9" />
    </clipPath>
  </defs>
</svg>
