<?xml version="1.0" encoding="UTF-8" standalone="no"?>
<!-- Created with Inkscape (http://www.inkscape.org/) -->

<svg
   viewBox="0 0 142.12897 142.12897"
   version="1.1"
   id="svg5"
   xml:space="preserve"
   inkscape:version="1.4 (e7c3feb100, 2024-10-09)"
   sodipodi:docname="obtanium.svg"
   xmlns:inkscape="http://www.inkscape.org/namespaces/inkscape"
   xmlns:sodipodi="http://sodipodi.sourceforge.net/DTD/sodipodi-0.dtd"
   xmlns:xlink="http://www.w3.org/1999/xlink"
   xmlns="http://www.w3.org/2000/svg"
   xmlns:svg="http://www.w3.org/2000/svg"><sodipodi:namedview
     id="namedview7"
     pagecolor="#ffffff"
     bordercolor="#000000"
     borderopacity="0.25"
     inkscape:showpageshadow="2"
     inkscape:pageopacity="0.0"
     inkscape:pagecheckerboard="0"
     inkscape:deskcolor="#d1d1d1"
     inkscape:document-units="mm"
     showgrid="false"
     inkscape:zoom="3.418903"
     inkscape:cx="61.423211"
     inkscape:cy="99.739595"
     inkscape:window-width="2207"
     inkscape:window-height="959"
     inkscape:window-x="0"
     inkscape:window-y="0"
     inkscape:window-maximized="0"
     inkscape:current-layer="layer1" /><defs
     id="defs2"><linearGradient
       inkscape:collect="always"
       id="linearGradient3657"><stop
         style="stop-color:#9b58dc;stop-opacity:1;"
         offset="0"
         id="stop3653" /><stop
         style="stop-color:#321c92;stop-opacity:1;"
         offset="1"
         id="stop3655" /></linearGradient><linearGradient
       inkscape:collect="always"
       id="linearGradient945"><stop
         style="stop-color:#9b58dc;stop-opacity:1;"
         offset="0"
         id="stop941" /><stop
         style="stop-color:#321c92;stop-opacity:1;"
         offset="1"
         id="stop943" /></linearGradient><linearGradient
       inkscape:collect="always"
       xlink:href="#linearGradient945"
       id="linearGradient947"
       x1="76.787094"
       y1="113.40435"
       x2="110.68458"
       y2="152.48038"
       gradientUnits="userSpaceOnUse"
       gradientTransform="matrix(2.1732173,0,0,2.1732173,-114.39267,-150.22144)" /><linearGradient
       inkscape:collect="always"
       xlink:href="#linearGradient3657"
       id="linearGradient3659"
       x1="76.787094"
       y1="113.40435"
       x2="110.68458"
       y2="152.48038"
       gradientUnits="userSpaceOnUse"
       gradientTransform="matrix(2.1732173,0,0,2.1732173,-114.39267,-150.22144)" /></defs><g
     inkscape:label="Layer 1"
     inkscape:groupmode="layer"
     id="layer1"
     transform="translate(-30.394373,-54.680428)"><path
       style="fill:url(#linearGradient3659);fill-opacity:1;stroke:url(#linearGradient947);stroke-width:0.302078;stroke-dasharray:none"
       d="m 124.48939,182.72785 c -1.58962,-0.84271 -10.88037,-5.99112 -54.400881,-30.14577 -12.110753,-6.7217 -23.771151,-13.18541 -25.911964,-14.36383 -4.862097,-2.67636 -5.609183,-3.33494 -5.609183,-4.94468 0,-0.84299 1.940531,-6.24216 6.488378,-18.05268 3.56862,-9.26747 6.7245,-17.388774 7.013082,-18.047354 0.657181,-1.499696 1.716233,-2.773475 2.750706,-3.308415 0.968342,-0.500754 25.166982,-9.33799 26.400544,-9.641344 1.333379,-0.327949 2.483554,0.303741 3.16175,1.736411 0.325466,0.687566 1.678006,4.236351 3.005623,7.886183 1.327618,3.649809 3.304082,9.046559 4.392162,11.992769 2.492876,6.7501 2.58596,7.70599 0.850158,8.73135 -0.460068,0.27176 -3.452667,1.44603 -6.650232,2.60949 -3.197588,1.16345 -6.248723,2.36841 -6.78029,2.67768 -1.226171,0.71338 -1.410699,1.81514 -0.452349,2.70072 0.380803,0.35192 6.529075,3.85901 13.662821,7.79356 19.939125,10.99723 18.832215,10.4996 20.162285,9.06442 0.65168,-0.70317 12.56427,-31.00311 13.24785,-33.69619 0.29209,-1.15071 0.26011,-1.31062 -0.36281,-1.81505 -0.85115,-0.68921 -0.72803,-0.7187 -8.55807,2.04957 -7.75702,2.74242 -8.49567,2.80049 -9.53487,0.74949 -0.54564,-1.07695 -8.901047,-24.024498 -9.419708,-25.870671 -0.335503,-1.194187 0.07472,-2.329031 1.080116,-2.987786 0.417859,-0.273783 6.498162,-2.606444 13.511772,-5.18368 10.40806,-3.824558 13.0569,-4.690725 14.41098,-4.712345 1.74661,-0.02787 1.97582,0.09217 34.00028,17.811674 2.21894,1.227752 3.40281,2.520083 3.40281,3.714562 0,0.474075 -7.9405,21.536826 -17.64559,46.806126 -13.68736,35.63809 -17.81856,46.09642 -18.41672,46.62285 -1.01683,0.89491 -1.84984,0.85608 -3.79865,-0.17711 z"
       id="path239" /></g></svg>
